<svg id="レイヤー_2" data-name="レイヤー 2" xmlns="http://www.w3.org/2000/svg" viewBox="0 0 245.08 266.8"><defs><style>.cls-1{fill:#d1adac;}</style></defs><path class="cls-1" d="M707.82,478.62c.15.36.3.12.12-.93l-.45-.7Z" transform="translate(-560.95 -211.97)"/><path class="cls-1" d="M707.74,471.43c-.17-1.23-.47-2.7-.79-1.89.35,1.26.18,1.56.62,2.88.12,1.06,0,1.86-.11,1.7a6.41,6.41,0,0,1,.1,1,3.52,3.52,0,0,0,.28,1.17c0-.35,0-.72,0-1.11s0-.8,0-1.22c0-.83-.22-1.72-.3-2.63C707.58,471,707.68,471.34,707.74,471.43Z" transform="translate(-560.95 -211.97)"/><path class="cls-1" d="M761.3,386.14l-.54.4A6.14,6.14,0,0,0,761.3,386.14Z" transform="translate(-560.95 -211.97)"/><path class="cls-1" d="M799.06,335a2.17,2.17,0,0,0-.19.7C799,335.24,799.13,334.89,799.06,335Z" transform="translate(-560.95 -211.97)"/><path class="cls-1" d="M802.94,324.69c-.08.22-.14.41-.21.61A2.77,2.77,0,0,0,802.94,324.69Z" transform="translate(-560.95 -211.97)"/><path class="cls-1" d="M761.3,386.14l1.36-1.05C762.68,384.93,762,385.61,761.3,386.14Z" transform="translate(-560.95 -211.97)"/><path class="cls-1" d="M709,457.13a6.82,6.82,0,0,0-.18.93c.07-.29.13-.57.22-.86A.16.16,0,0,1,709,457.13Z" transform="translate(-560.95 -211.97)"/><path class="cls-1" d="M741,405.56l-.33.39a3.69,3.69,0,0,0-.17.42Z" transform="translate(-560.95 -211.97)"/><path class="cls-1" d="M728.4,423a1.15,1.15,0,0,0,.1-.93,3.25,3.25,0,0,1-.4,1S728.24,423.08,728.4,423Z" transform="translate(-560.95 -211.97)"/><path class="cls-1" d="M711.82,453l-.19.58Z" transform="translate(-560.95 -211.97)"/><path class="cls-1" d="M751.82,394.59a.34.34,0,0,0,.21,0S751.93,394.54,751.82,394.59Z" transform="translate(-560.95 -211.97)"/><path class="cls-1" d="M668.57,399.94s0,0,0,.06S668.73,400,668.57,399.94Z" transform="translate(-560.95 -211.97)"/><path class="cls-1" d="M693.57,401.48l-.35,0c0,.06-.07.12-.06.17Z" transform="translate(-560.95 -211.97)"/><path class="cls-1" d="M806,304.61v.09C806,305.24,806,304.93,806,304.61Z" transform="translate(-560.95 -211.97)"/><path class="cls-1" d="M669.94,212.24c2.11.16-3.37.51-.21.64C669.42,212.78,672.56,212.28,669.94,212.24Z" transform="translate(-560.95 -211.97)"/><path class="cls-1" d="M709.24,456.6l.29-.85C709.39,456.14,709.3,456.4,709.24,456.6Z" transform="translate(-560.95 -211.97)"/><path class="cls-1" d="M669.73,212.88h0l.32,0Z" transform="translate(-560.95 -211.97)"/><path class="cls-1" d="M792.26,260.39a2,2,0,0,0,.12.48S792.38,260.73,792.26,260.39Z" transform="translate(-560.95 -211.97)"/><path class="cls-1" d="M804.13,292.82,804,292C804.06,292.31,804.1,292.58,804.13,292.82Z" transform="translate(-560.95 -211.97)"/><path class="cls-1" d="M781.53,246a8.92,8.92,0,0,0-.8-1,.5.5,0,0,0,.1.17A4,4,0,0,1,781.53,246Z" transform="translate(-560.95 -211.97)"/><path class="cls-1" d="M767.82,233.2l.25.26.48.35Z" transform="translate(-560.95 -211.97)"/><path class="cls-1" d="M615,385.72a3.48,3.48,0,0,1,.64.61C615.43,386,617.88,387.15,615,385.72Z" transform="translate(-560.95 -211.97)"/><path class="cls-1" d="M709.18,457.17a1.14,1.14,0,0,1,.06-.57q-.09.31-.18.6C709.08,457.27,709.11,457.29,709.18,457.17Z" transform="translate(-560.95 -211.97)"/><path class="cls-1" d="M779.28,246.88c-.63-.73-1.21-1.51-1.88-2.21C778,245.26,778.6,246.1,779.28,246.88Z" transform="translate(-560.95 -211.97)"/><path class="cls-1" d="M569.71,275.12l-.25.62A5,5,0,0,0,569.71,275.12Z" transform="translate(-560.95 -211.97)"/><path class="cls-1" d="M771.17,238.78a8.85,8.85,0,0,0-1.1-1.21,1.5,1.5,0,0,0-.32-.15C770.26,237.83,770.7,238.33,771.17,238.78Z" transform="translate(-560.95 -211.97)"/><path class="cls-1" d="M615.59,386.33Z" transform="translate(-560.95 -211.97)"/><path class="cls-1" d="M633.58,393.05c-2.63-.87-1.36-.05-2,0-3.18-1-1.35-.78-2.35-1.35-2-.65-3.6-.83-5-1.48-.08-.1-.35-.24,0-.17a41.25,41.25,0,0,1-4.1-1.6,42,42,0,0,0-4.29-1.86,1.28,1.28,0,0,1-.26-.24c.29.36.26.56.12.65-1.14-.53-2.19-.85-2.48-1.31a3.31,3.31,0,0,0,1.12.43l-1.19-.55c-.85-.91,1.61.79,1.75.52-1.16-.54-2.4-1.16-3.58-1.73a18.55,18.55,0,0,1-3.07-1.73c-.08-.27.88.36,1.66.75s1.29.68.24-.09l2.56,1.6c-1.73-1.62,1.58.94,0-.63-3.42-2-3.92-2.08-7.21-4.29-.86-.31.09.41-.77.09a14.4,14.4,0,0,1-3.79-3,10.65,10.65,0,0,0-1-1,11.94,11.94,0,0,0-1.82-1.4,8.45,8.45,0,0,1-3.67-2.52c.34.13.66.26,1,.38-2.78-2.64-2-1.07-4.75-4,.62.39,2.29,2,1.9,1.55-1.68-2-1.53-1.08-2.91-2.54l0-.55c-1.42-1.47-3-2.94-4.43-4.62l-2.23-2.5c-.72-.86-1.4-1.77-2.1-2.67.24.14.79.7.24-.22a69.08,69.08,0,0,1-5-7.38,82.82,82.82,0,0,1-3.9-7.85l-1.19-1.76c-.21-.44-.27-.87,0-.42-.78-2-.24,0-.76-.91-.47-1.13-.44-1.57-.06-.89a53.21,53.21,0,0,1-2.89-6.72c-.44-1.29-.94-2.57-1.24-3.82s-.55-2.4-.72-3.39l.28.73c-.67-3-1.4-3.28-1.63-6.18l.15.53c-1-6.65-1.65-14.17-.64-19.26a5.2,5.2,0,0,1-.08-1.47c.07-.67.21-1.48.34-2.27.24-1.58.46-3.09.19-3.36.53-1.87.8-2.51,1.07-3.35s.5-1.9,1.42-4.45c.45-1.36.21-2.18.72-3.9l.32.06.55-2.38.81-1.07c.18-.53.33-1.07.53-1.59-.28.6-.64,1.27-.7,1.13a21.15,21.15,0,0,1,1.75-3.8,8.82,8.82,0,0,1,1.23-1.93c.87-1.87,1.78-3.72,2.71-5.58a12.32,12.32,0,0,1-.74,1.88c1.3-3.06.53-.38,1.86-3.11-.28.3,0-.29-.06-.38.48-.59,1.18-1.61,1.92-2.76s1.67-2.33,2.37-3.39l-.1.53c1.31-1.89,2.89-3.72,4.42-5.68.78-1,1.66-1.89,2.5-2.84s1.69-1.93,2.65-2.8c-1.41,1.21-1.38.65-.31-.43l.67-.19c.56-.83-1.23,1,0-.57,1.42-1.32,1.2-.62.48.23l1.61-1.72c.17,0-.19.4-.21.59.51-.87,3.25-2.43,4.05-3.62h.16c1-.86,1.85-1.53,2.64-2.16l2.19-1.73c1.37-1.09,2.74-2,4.46-3.2,0-.15.27-.45.73-.81a17.57,17.57,0,0,0,1.54-1.18c2.68-1.57,5.81-3,9.14-4.68,2.31-1.24.59-.55,1.58-1.2.29.16,3.67-1.43,2-.45,2-.91,3.38-1.43,4.82-2.07s3.08-1.21,5.72-2.28c-.62.11-1.29.29-1,.09,1-.41,2.27-.62,2.17-.46l-.25.1c1.49-.55,3.13-1.08,4.83-1.52s3.48-.78,5.21-1.12,3.43-.57,5-.89a39.25,39.25,0,0,0,4.24-.91l-.28.07c1.71-.43,3.44-.73,5.17-1.09,2.41-.3-1.41.41.38.32a54,54,0,0,1,7.14-1c2.12-.11,4.11-.26,6.45-.53a58.82,58.82,0,0,0,8.41,0c1.69-.08,3.42-.08,5-.08a32.66,32.66,0,0,1,4.33.24l-.28-.2a8.12,8.12,0,0,1,2.46.22c-.13-.15-1.37-.21-.58-.29a190.62,190.62,0,0,1,32.89,3.58,9.85,9.85,0,0,0,3.29.21,9.59,9.59,0,0,1,4,.72h-1.47c8,1.29,16,4.17,23.34,7a4,4,0,0,1-1.23-.33,30,30,0,0,0,3.36,1.56,9.17,9.17,0,0,0,2.33.87c1.09.57.18.29.8.72s1.67.87,2.52,1.29a8.35,8.35,0,0,1,1.94,1.12c.11.11-.45-.17-.72-.3a19.36,19.36,0,0,1,2.44,1.38c.84.54,1.47.92,1.11.51a74.28,74.28,0,0,1,6.46,4.72c1.38.74,3.69,3.44,4.37,3.42-.24.1.6,1.09,1.68,2.2.54.56,1.14,1.15,1.7,1.67s1,1,1.35,1.36c-.51-.38,1,1.33.33.9,1.42,1.59,2.66,3.1,2.62,2.66a45.67,45.67,0,0,0,3.35,4.63,11.32,11.32,0,0,1,2.3,3.78,89.9,89.9,0,0,1,8.81,15.64c-.26,0-.88-1.46-1.5-2.85s-1.34-2.68-1.51-2.46c.62,1.2,1.26,2.24,1.75,3.27l1.45,2.94c.23.49.48,1,.69,1.46s.41,1,.62,1.54c.41,1.06.83,2.19,1.26,3.47.17.68.06.51-.11.11s-.47-1-.59-1.2a94.34,94.34,0,0,1,4,14.73,4.39,4.39,0,0,1-.3-1c.18.93.31,2.18.5,2l-.21-.9c0-.77.34.13.68,1.25s.54,2.48.65,2.56c-.78-1.54.33,4.77-.7,2.28.12.61.26,1.39.39,1.24,0,.93-.09,1.22-.28.3.18,3.37.46,2.17.43,5.25-.11,0-.09-.64-.24-.95a24.77,24.77,0,0,1,0,5.72c0-.16-.13.13-.08-.64-.11,1.11-.21,2.14-.31,3.13l-.12,1.48a8.86,8.86,0,0,1-.19,1.45,34.63,34.63,0,0,1-1.51,6.27c0-1.53-.63,1.56-1.08,1.7-.21.86-.44,1.71-.7,2.56l.52-1c-.77,2.19-1.1,4.26-2,6.07.16-.56.33-1.11.46-1.67l-1.48,4.1,1-2.25c-.65,2.27.55-.06-.66,2.8a34.74,34.74,0,0,1-1.59,3.18h0a16.35,16.35,0,0,1-1.53,3.77c-.31.35-.24-.51-.44-.28a16.66,16.66,0,0,1-1.26,3.08,22,22,0,0,0-1.48,3.25c.15-.46,0-.58-.12-.46l-.22,1c-.6.9-.73,1-.78.77-1.7,2.77,1-.64-1.2,2.57.14-.27,0-.17.32-.73a103.12,103.12,0,0,1-6.09,9.19c-.92.61,1.74-2.58.77-1.8-1.43,2.12-3,4.25-4.57,6.36a68,68,0,0,1-5,5.87l.66-.65c0,.44-.71,1.07-1.57,1.85a22.29,22.29,0,0,0-2.74,2.61c.4-.46.35-.79.27-.62-.61.58-1.22,1.18-1.84,1.82l-2,2-2.2,2.22-2.61,2.47.39-.53c-1.57,1.25-4.06,3.37-5.77,4.7-.4.52-1.38,1.3-.66,1a42,42,0,0,0-7.4,6.24c-2.16,2.24-4.18,4.48-6.44,6.45.49-.52,1.07-1.33.68-.91-1.13,1.26-2.21,2.57-3.29,3.88.43-.16.55-.41,1.39-1.09a27,27,0,0,1-2,2.69c1.34-1.85-.31-.23-1,.44.16-.08,0,.23.12.21-2,1.81.08.64-2.37,3.31v-.23c-.76,1.12-1.39,2.2-2.27,3.37-.57.32.74-1.25.62-1.46-1.21,1.67-1.94,3.59-3.21,5,.43-.75,1.13-1.8,1.58-2.55a19.17,19.17,0,0,0-2.39,2.93l.09-.12-2,2.83.56-.69c-.78,2.55-2.69,4.49-4,7.74,1.27-3.14,0-.62-.1-1-.51.73-1.27,1.85-1.15,1.47-.59,1.55-1.51,2.28-2.31,4.47-.14,0-.86,1.52-.9,1.07-1,1.89.39-.35.42-.13-1.29,3-4.13,6.5-5.88,10.92-1.67,3.71-1.68,4.55-3,8-.63,1.12.06-1.1.08-1.1a23.62,23.62,0,0,0-1.17,2.57,20.32,20.32,0,0,0-.84,2.6c0-.41-.16-.05-.46.48-.49,1.49,0,1.11-.68,3a9.14,9.14,0,0,1,0-1.62,49.64,49.64,0,0,0-.91,5.52c-.12.24-.16-.06-.14-.5s.1-1,.12-1.36c-.45,2.12-.68,5.56-.41,6.23l.19-1.36c0,.78-.27.38-.28-.2a4.39,4.39,0,0,1,.57-2.71l-.13,1.36c.69-1.3.87-5.36,1.76-8,0,.4,0,.81.08,1.21.11-.93.35-1.83.52-2.75.3-.53.66-.82.29.46.82-1.76.45-1.66,1.27-3.13.1-.16.09-.07.05.09.18-.6.38-1.2.61-1.79-.07.38.41-.16-.12.87,1.58-3,2-5.1,2.86-6.11l-.11.27c2-4.26-.08-.55,1.22-3.87l1.83-1.73L718,440c.24-.42.73-1.25.76-1,.68-1.69-.27.21.06-.81,1.37-1.92,3-5.72,3.72-5.94.2-.85-1.26,1.87-.18-.4.83-.35,1.32-2.58,2.6-4.31-.08.71-1.21,2.4.07.66.21-1.36,2.17-3.55,3-5.13-.28-.27,1.93-3.42,3.54-6,0,.21,3.41-4.57,5.27-6.67v.1c0-.66,1.89-2.9,3.21-4.55.12.21-.06.56-.71,1.5l1.27-1.52a9.74,9.74,0,0,1,1.39-1.93l-.12.56a58.54,58.54,0,0,1,5.87-6.42c-.05-.33-2.47,1.37,0-1.28.2,0,.47.09-.17.79a10.85,10.85,0,0,1,1.2-1.24L748,397.6c1.19-1,.45-.71,1.35-1.55.13.16.78-.52.76-.28a9.78,9.78,0,0,0-1.13,1.07,19.58,19.58,0,0,1,2.87-2.25c-.16,0-.2-.21.56-.9,2-1.75.84-.41,2.07-1.34.39-.53,1.78-1.48,1.62-1.75a3,3,0,0,1,1.08-.6c1-1,4.92-4.14,3.52-3.39l-.29.2.17-.15h0c1.63-1.56,3.39-3.1,5.19-4.59s3.55-3,5.07-4.69l.07.08,2.89-3.07c.92-1,1.77-2,2.34-2.79.55-.57,1.39-1.26,1.26-.92a40.94,40.94,0,0,1,3.37-4c-1.17,1.7.6-.43-1.25,1.7.91-1,1.47-1.57,2-2.23a23.55,23.55,0,0,0,1.82-2.56c-.2.46.19.13.69-.48s1.11-1.47,1.45-2l-1.25,1.41c.8-1.18,1.55-2.18,2.31-3.19l-.12.75a27.46,27.46,0,0,0,2.24-3.21c.32-.53.63-1.06.92-1.58s.55-1,.81-1.57c.52-1,1-2,1.57-2.94a18.85,18.85,0,0,1,1.7-2.69c.47-1.39-1.54,2.53-1.18,1.26.6-1.1,1.35-2.15,1.93-3s1.06-1.62,1.23-2a10.58,10.58,0,0,0,1.25-3.11,14.82,14.82,0,0,1,1.17-3.27c-.32.37-.72.67.12-1.87.93-2.31,1.58-2.69,1.11-1.18-.21.57-.35.83-.38.79-.24.77-.57,1.78-.09.9v-.34c.56-1.12,1.78-4.36,1.67-3.53.5-1.84.08-.83-.45.47,1.21-3,1.68-4.74,2.73-7.88-.22.48-.5.9-.35.4,1.55-4.6.43-2.1,1.16-5.32.61-1.78.28.76.89-2.52.24-1,.31-1.09.36-.83a4.68,4.68,0,0,1,0,1.28c.2-1.52.36-2.94.63-4.19.12-.62.26-1.2.35-1.74s.13-1,.16-1.47l0,1.63c0-1,0-1.76.07-2.57l-.29.91a6.15,6.15,0,0,1,.23-1.73c-.11-1-.45.73-.57-1.2.21-1.25-.21-3.8.13-4.25,0,3.95.32-.44.47,2.91-.06-.65-.08-1.44-.07-2.39,0-.14.08.13.1.39.18-3.81-.35-1.73-.74-5.62.24.47.26-.94.16-1.58.15,1.58-.23.79-.52-.63a29.49,29.49,0,0,0-.76-4l.19,1.49a22.07,22.07,0,0,1-.83-3.4c.14-.18.39,1.53.34.91a18.25,18.25,0,0,1-.69-3.17,16,16,0,0,0-.84-3.71c-.24-1.23.3-.22.06-1.29a17.53,17.53,0,0,1-.9-3,18.51,18.51,0,0,0-1.08-3.11c.08.95.19,1.08-.8-.94.63,1.62,1.35,3.21,1.9,4.87-.41-1.05-1-2-1.44-3.05.27.74.59,1.5.88,2.2s.47,1.34.59,1.8c-.65-1.47-.55-1.32-.53-.54a10.31,10.31,0,0,0-1-3.09,20.58,20.58,0,0,1-1.23-3.27l.61-.16a41.62,41.62,0,0,0-2.13-4.9c-.86-1.59-1.8-3.29-2.83-5.49.23.46.4,1,.61,1.44-.47-.49-1.43-2.63-2.28-4,.25,0-.16-.87-.37-1.53,0,.13-1.85-3-2.42-3.2-.31-.66-.6-1.33-.93-2-2.16-3.28-3-3.38-5.23-6.38.87.77-.06-.68,1.61,1.22-.77-1-1.43-1.92-1.56-1.84a10.16,10.16,0,0,0-1.39-1.66,12.81,12.81,0,0,1-1.63-1.88,6,6,0,0,1-1.6-1.41c-.07-.14.08-.06.08-.06s-1.65-1.49-.95-.45a28.32,28.32,0,0,0-5-5.25c-2-1.8-4.09-3.24-5.25-4.51-1.11-.83-2.44-1.57-3.67-2.38s-2.51-1.53-3.59-2.13c.16,0,.05-.09.45.17-2.9-1.86-2.08-.61-5.47-2.53-1.63-1.19,1.94.76.88.1-.09-.43-1.16-.94-2.48-1.53a31,31,0,0,1-4.07-1.84l.61.22a15.16,15.16,0,0,0-3.38-1.33c-1.34-.39-2.8-.88-4.36-1.4,0,0,.17,0,0-.09-1.12-.18-2.7-.57-4.38-1s-3.49-.82-5-1.19c1,0,1.42.25.91-.17-1.38-.32.3.48-2.46-.09-.85-.35-2.8-.94-3-1.28l2.6.59c-1.25-.67-3.36-.8-4.72-1.1l.21-.13a36.48,36.48,0,0,0-4.12-.55,39.28,39.28,0,0,1-4.35-.53l.43.19c-2.42,0-2-.51-4.35-.55l-.66-.5c-.79-.07-2.18-.14-3.72-.2l-4.64-.25c1.63-.19,4.93.05,7,.09a46.14,46.14,0,0,0-6.12-.42,10.66,10.66,0,0,1,2,.13,57.38,57.38,0,0,1-7.57-.2c.31-.38-1.71-.56-4.09-.75a37.74,37.74,0,0,1-6.23-.65c-5.52.12-10.95-.35-17.4-.08,2.31.51-1.87.11-1.45.73a13.46,13.46,0,0,1-2.2.09c-1.52-.07-3,0-4.55-.06-1.09-.1,1.41-.25,1.26-.38-3.28.21-1.4-.16-3.59-.16.47.18-1.1.44-3,.56h2.66c-4.53.86-4-.16-8.57.85l1.42-.41c-2.34.41-8.7,1.36-10.86,2.4-.43,0-1,0,0-.3-1.4.3-2.87.61-4.34,1l-4.38,1.31-4.12,1.36c-1.31.39-2.51.79-3.57,1.09l.35-.29a14.94,14.94,0,0,1-3,1.19c0-.08.35-.28-.12-.13s-2.52,1.3-3.86,1.74l1.05-.62c-1.31.49-2.46.93-3.48,1.42s-1.93,1-2.82,1.5c-1.79.94-3.37,2-5.4,3.17-.09-.18-1.16.13-2.37.77s-2.66,1.43-3.62,2l0-.1c-1.4.83-2.59,1.75-3.77,2.58l-1.69,1.25-1.57,1.31c-1,.88-2,1.73-3.07,2.65l-3.12,2.92a21.72,21.72,0,0,0-2.82,2.3c-1.06,1-2.32,2.07-3.46,3.36S583,249.7,581.89,251s-2.21,2.61-3.22,3.73c.65-.66.18.33-.38,1.23-.9,1.09-2,3.34-2.23,2.92l.3-.41c-1,.59-2.43,3.14-3.65,5l.27.6a40.61,40.61,0,0,0-5,9.08c-.74,1.6-1.26,3.2-1.78,4.55a27.89,27.89,0,0,1-1.43,3.16c-.28,1.41-.78,3.11-1,4.5l-.27-.15c-.57,1.9-.84,3.37-1.21,4.93a49,49,0,0,0-.89,5.71l-.07-1a9.22,9.22,0,0,0,0,3.13,11,11,0,0,1,.27,2.95l-.48.74c-.23,2.4-.14,4.83-.17,7.25a27.27,27.27,0,0,0,.26,3.61c.14,1.19.31,2.38.52,3.55-.07-.07-.21-.19-.3-1,0,1.14.44,3.3.73,5.09a20.66,20.66,0,0,0,.47,2.19c.19.5.34.72.44.49-.19.07.11,1.28.55,2.77.23.75.48,1.57.73,2.35s.59,1.51.83,2.12l-.4-.3a33.73,33.73,0,0,1,2.25,4.83c.23.68,0,.67-.27-.24.76,2.28,1,1.63,1.9,4.39l-.58-.94a9.33,9.33,0,0,0,1.74,3.21,22.14,22.14,0,0,1,1.93,4.68,9.16,9.16,0,0,1,1.81,2.6c0,.22-.31-.21-.46-.43.46.92.9,1.71,1.32,2.41s.88,1.27,1.28,1.83a24.64,24.64,0,0,1,2.18,3.37c0,.1,0,.28.14.49-1.83-2.74-3.23-5-3.08-4.79-.23.14,1.18,2.41-.29.82.67.85,1.6,2,2.52,3.18s2,2.36,2.66,3.45a1.4,1.4,0,0,1,.13.33l-.18-.2a11.08,11.08,0,0,0,1,1.3,14,14,0,0,0,1.28,1.72c0,.38,1.87,2.42,2.71,3.45.14-.27,1.26,1.06.37-.32.12.17-.19-.17-.76-.84-.14-.15-.29-.32-.39-.41l.08.05L582,361.31a13.34,13.34,0,0,1,2.4,2.69l1.54,1.1c.94,1.58,3.18,4.27,3.34,4.8,1.53,1.34,3.28,3,5,4.38a34.91,34.91,0,0,0,4.52,3.11,4,4,0,0,1,1.25,1.23c-.56-.35-1.21-.8-1.53-1L602,380.1c.61.42,1.18.8,1.64,1.07a3.12,3.12,0,0,0,1,.4c2.34,1.7-1.56-.58,1.82,1.5l-.52-.19c.78.6,1.55,1.13,2.3,1.63s1.53.89,2.28,1.29a46.68,46.68,0,0,0,4.48,2.12c1.53.62,3,1.31,4.69,2s3.39,1.53,5.32,2.52a3,3,0,0,1-.9-.51c9,4.07,19.34,6.17,28.81,8.32a20.28,20.28,0,0,0,4.75.39l.55.4,2.91,0a23.26,23.26,0,0,1,2.88.32l2.78.45c.94.16,1.92.31,3,.41a25.52,25.52,0,0,0,3.53,0l-.66-.24c.93.05,2.4.1,3.6.13s2.12,0,2,.16a3,3,0,0,1,1.33-.09l.06.16,2.28-.11,2.28-.18c3.53,0-.55.69,4.62.57,1.92-.15,5.44-.73,4.71-.81a5.32,5.32,0,0,1-2-.17l1.74-.17c.29-.5,1.59-1.05-2.69-1.19l-3,.43-1-.22c.84,0,1.67,0,2.5-.1a11.31,11.31,0,0,0-3.32.21,3.62,3.62,0,0,0-1.25-.24l-2.92.51c-.35-.2,1.31-.36-.65-.49-1.37.2,1.31.44-1,.55a5.68,5.68,0,0,0-2.68-.24c-.23-.13.12-.21.78-.25-1.49.16-3.93,0-4.7.18a21.17,21.17,0,0,0-3-.26c-1-.08-1.89-.18-1.8-.4a30.12,30.12,0,0,1-4,.06c2.54-.28-5.07-.58-4.35-1.11a17.63,17.63,0,0,1-4.42-.28l-2.8-.38c-.93-.14-1.83-.29-2.64-.37a3.17,3.17,0,0,1,.83.06c-1.8-.38-2.3-.63-3.43-.94-.32.39-3.13-.2-4.69-.3-2.11-.89,1.44-.15.84-.68,0,.17-.95,0-1.84-.1s-1.69-.3-1.36-.06a7.08,7.08,0,0,1-2.16-1.08c-.43.41-1.57-.32-3-.44-2.29-1-.46-.66-3.11-1.36C631.22,392.47,633.58,393.05,633.58,393.05Zm-52.71-35.94h0l.82,1.07Zm-3.13-4.49,1.28,2c0,.22-.17.11-.47-.36C578.77,354.47,578.11,353.36,577.74,352.62Zm5.34,10.6c-.6-.66-.75-.92-.78-1.05l1,1.16.09.06A1,1,0,0,1,583.08,363.22Z" transform="translate(-560.95 -211.97)"/><path class="cls-1" d="M584.39,364.18c.08.09.14.14.25.27l-.29-.45-.27-.18Z" transform="translate(-560.95 -211.97)"/><path class="cls-1" d="M760.67,386.61l.09-.07-.21.12A.51.51,0,0,1,760.67,386.61Z" transform="translate(-560.95 -211.97)"/><polygon class="cls-1" points="6.7 68.83 6.63 68.81 6.52 69.28 6.7 68.83"/><path class="cls-1" d="M738.11,406.94a1.38,1.38,0,0,0-.32.26A1.88,1.88,0,0,0,738.11,406.94Z" transform="translate(-560.95 -211.97)"/><path class="cls-1" d="M730.2,417.48l-1.11,1.5C729.59,418.34,729.93,417.86,730.2,417.48Z" transform="translate(-560.95 -211.97)"/><path class="cls-1" d="M724.73,426a.37.37,0,0,0,0,.23h0Z" transform="translate(-560.95 -211.97)"/><path class="cls-1" d="M802.32,293.86c0-.14-.05-.26-.08-.38C802,292.6,802.16,293.2,802.32,293.86Z" transform="translate(-560.95 -211.97)"/><path class="cls-1" d="M795.87,339.87c.15-.48.3-1,.48-1.46C796,339.18,795.73,339.78,795.87,339.87Z" transform="translate(-560.95 -211.97)"/><path class="cls-1" d="M779.49,247.12h0l-.22-.24Z" transform="translate(-560.95 -211.97)"/><path class="cls-1" d="M797.19,336.37c-.34.78-.63,1.42-.84,2A14.57,14.57,0,0,0,797.19,336.37Z" transform="translate(-560.95 -211.97)"/><path class="cls-1" d="M707.08,466.08l-.05.5s0,0,0,.06Z" transform="translate(-560.95 -211.97)"/><path class="cls-1" d="M707.07,466.64v.56A2,2,0,0,0,707.07,466.64Z" transform="translate(-560.95 -211.97)"/><path class="cls-1" d="M707.06,468.36V467.2A5,5,0,0,0,707.06,468.36Z" transform="translate(-560.95 -211.97)"/><path class="cls-1" d="M710.63,453l0-.18C710.58,452.92,710.59,453,710.63,453Z" transform="translate(-560.95 -211.97)"/><path class="cls-1" d="M712.21,449.23a28.18,28.18,0,0,0-1.65,3.45l0,.15C710.65,452.16,712,450.15,712.21,449.23Z" transform="translate(-560.95 -211.97)"/><path class="cls-1" d="M721.25,434.82l-1.72,2.93c.38-.47.89-1.08.17.29C722.07,434.45,719,438.68,721.25,434.82Z" transform="translate(-560.95 -211.97)"/><path class="cls-1" d="M726.57,425.73c-.88,1.59.15.06.16.18C727.23,424.87,727.35,424.61,726.57,425.73Z" transform="translate(-560.95 -211.97)"/><path class="cls-1" d="M778,370.16l.08.32C778.92,369.38,778,370.4,778,370.16Z" transform="translate(-560.95 -211.97)"/><path class="cls-1" d="M785.78,357.82c-.3.35-.59.69-.91,1l-.18.66C785.07,359,785.44,358.4,785.78,357.82Z" transform="translate(-560.95 -211.97)"/><path class="cls-1" d="M791.94,351.49l-.28.56c.38-.69.72-1.41,1.07-2.13C792.46,350.45,792.22,351,791.94,351.49Z" transform="translate(-560.95 -211.97)"/><path class="cls-1" d="M770.64,235l.14.52C771.58,236.08,772,235.92,770.64,235Z" transform="translate(-560.95 -211.97)"/><path class="cls-1" d="M719.22,215.15a8.4,8.4,0,0,0-3.07-.57C717.38,214.76,718.59,215.08,719.22,215.15Z" transform="translate(-560.95 -211.97)"/><polygon class="cls-1" points="10.3 54.42 10.74 53.37 9.81 55.28 10.3 54.42"/></svg>